<?xml version="1.0" encoding="UTF-8" standalone="no"?>
<!DOCTYPE svg PUBLIC "-//W3C//DTD SVG 1.1//EN" "http://www.w3.org/Graphics/SVG/1.1/DTD/svg11.dtd">
<svg version="1.1" xmlns="http://www.w3.org/2000/svg" xmlns:xlink="http://www.w3.org/1999/xlink" preserveAspectRatio="xMidYMid meet" viewBox="-1 -1 47 47" width="43" height="43"><defs><path d="M31.5 12L12 12L12 43L0 43L0 0L43 0M43 0L43 43L31 43L31 11.9" id="c2aHO8Sf9"></path><path d="M42 7L40 7L40 6L42 6L42 7Z" id="b8oDZ46Ug8"></path><path d="M42 12L40 12L40 11L42 11L42 12Z" id="cmdgMPvEw"></path><path d="M42 17L40 17L40 16L42 16L42 17Z" id="cqXr3tDul"></path><path d="M42 23L40 23L40 22L42 22L42 23Z" id="d1kbO4DSK8"></path><path d="M42 28L40 28L40 27L42 27L42 28Z" id="d29nboYpqA"></path><path d="M42 33L40 33L40 32L42 32L42 33Z" id="b2t0P3uMgC"></path><path d="M42 38L40 38L40 37L42 37L42 38Z" id="d1iQVSThnm"></path><path d="M3 7L1 7L1 6L3 6L3 7Z" id="azGDpHZ2E"></path><path d="M3 12L1 12L1 11L3 11L3 12Z" id="b3MG596ty7"></path><path d="M3 17L1 17L1 16L3 16L3 17Z" id="a4UsJdxNi"></path><path d="M3 23L1 23L1 22L3 22L3 23Z" id="k1V3MWSrUB"></path><path d="M3 28L1 28L1 27L3 27L3 28Z" id="a1Jmberyx"></path><path d="M3 33L1 33L1 32L3 32L3 33Z" id="aTvhfRPEM"></path><path d="M3 38L1 38L1 37L3 37L3 38Z" id="bZwEQR5f"></path><path d="M6 1L6 3L5 3L5 1L6 1Z" id="b17iflADfD"></path><path d="M11 1L11 3L10 3L10 1L11 1Z" id="b8BkDpoiH"></path><path d="M16 1L16 3L15 3L15 1L16 1Z" id="ag0x0dJ3X"></path><path d="M22 1L22 3L21 3L21 1L22 1Z" id="d2kNhsj2S1"></path><path d="M27 1L27 3L26 3L26 1L27 1Z" id="aXeN3ius3"></path><path d="M32 1L32 3L31 3L31 1L32 1Z" id="a65Lm3YRIS"></path><path d="M37 1L37 3L36 3L36 1L37 1Z" id="a2Fcot34i"></path></defs><g><g><use xlink:href="#c2aHO8Sf9" opacity="1" fill="#000000" fill-opacity="0"></use><g><use xlink:href="#c2aHO8Sf9" opacity="1" fill-opacity="0" stroke="#ffffff" stroke-width="1" stroke-opacity="1"></use></g></g><g><use xlink:href="#b8oDZ46Ug8" opacity="1" fill="#6caa1c" fill-opacity="1"></use><g><use xlink:href="#b8oDZ46Ug8" opacity="1" fill-opacity="0" stroke="#000000" stroke-width="1" stroke-opacity="0"></use></g></g><g><use xlink:href="#cmdgMPvEw" opacity="1" fill="#6caa1c" fill-opacity="1"></use><g><use xlink:href="#cmdgMPvEw" opacity="1" fill-opacity="0" stroke="#000000" stroke-width="1" stroke-opacity="0"></use></g></g><g><use xlink:href="#cqXr3tDul" opacity="1" fill="#6caa1c" fill-opacity="1"></use><g><use xlink:href="#cqXr3tDul" opacity="1" fill-opacity="0" stroke="#000000" stroke-width="1" stroke-opacity="0"></use></g></g><g><use xlink:href="#d1kbO4DSK8" opacity="1" fill="#6caa1c" fill-opacity="1"></use><g><use xlink:href="#d1kbO4DSK8" opacity="1" fill-opacity="0" stroke="#000000" stroke-width="1" stroke-opacity="0"></use></g></g><g><use xlink:href="#d29nboYpqA" opacity="1" fill="#6caa1c" fill-opacity="1"></use><g><use xlink:href="#d29nboYpqA" opacity="1" fill-opacity="0" stroke="#000000" stroke-width="1" stroke-opacity="0"></use></g></g><g><use xlink:href="#b2t0P3uMgC" opacity="1" fill="#6caa1c" fill-opacity="1"></use><g><use xlink:href="#b2t0P3uMgC" opacity="1" fill-opacity="0" stroke="#000000" stroke-width="1" stroke-opacity="0"></use></g></g><g><use xlink:href="#d1iQVSThnm" opacity="1" fill="#6caa1c" fill-opacity="1"></use><g><use xlink:href="#d1iQVSThnm" opacity="1" fill-opacity="0" stroke="#000000" stroke-width="1" stroke-opacity="0"></use></g></g><g><use xlink:href="#azGDpHZ2E" opacity="1" fill="#6caa1c" fill-opacity="1"></use><g><use xlink:href="#azGDpHZ2E" opacity="1" fill-opacity="0" stroke="#000000" stroke-width="1" stroke-opacity="0"></use></g></g><g><use xlink:href="#b3MG596ty7" opacity="1" fill="#6caa1c" fill-opacity="1"></use><g><use xlink:href="#b3MG596ty7" opacity="1" fill-opacity="0" stroke="#000000" stroke-width="1" stroke-opacity="0"></use></g></g><g><use xlink:href="#a4UsJdxNi" opacity="1" fill="#6caa1c" fill-opacity="1"></use><g><use xlink:href="#a4UsJdxNi" opacity="1" fill-opacity="0" stroke="#000000" stroke-width="1" stroke-opacity="0"></use></g></g><g><use xlink:href="#k1V3MWSrUB" opacity="1" fill="#6caa1c" fill-opacity="1"></use><g><use xlink:href="#k1V3MWSrUB" opacity="1" fill-opacity="0" stroke="#000000" stroke-width="1" stroke-opacity="0"></use></g></g><g><use xlink:href="#a1Jmberyx" opacity="1" fill="#6caa1c" fill-opacity="1"></use><g><use xlink:href="#a1Jmberyx" opacity="1" fill-opacity="0" stroke="#000000" stroke-width="1" stroke-opacity="0"></use></g></g><g><use xlink:href="#aTvhfRPEM" opacity="1" fill="#6caa1c" fill-opacity="1"></use><g><use xlink:href="#aTvhfRPEM" opacity="1" fill-opacity="0" stroke="#000000" stroke-width="1" stroke-opacity="0"></use></g></g><g><use xlink:href="#bZwEQR5f" opacity="1" fill="#6caa1c" fill-opacity="1"></use><g><use xlink:href="#bZwEQR5f" opacity="1" fill-opacity="0" stroke="#000000" stroke-width="1" stroke-opacity="0"></use></g></g><g><use xlink:href="#b17iflADfD" opacity="1" fill="#6caa1c" fill-opacity="1"></use><g><use xlink:href="#b17iflADfD" opacity="1" fill-opacity="0" stroke="#000000" stroke-width="1" stroke-opacity="0"></use></g></g><g><use xlink:href="#b8BkDpoiH" opacity="1" fill="#6caa1c" fill-opacity="1"></use><g><use xlink:href="#b8BkDpoiH" opacity="1" fill-opacity="0" stroke="#000000" stroke-width="1" stroke-opacity="0"></use></g></g><g><use xlink:href="#ag0x0dJ3X" opacity="1" fill="#6caa1c" fill-opacity="1"></use><g><use xlink:href="#ag0x0dJ3X" opacity="1" fill-opacity="0" stroke="#000000" stroke-width="1" stroke-opacity="0"></use></g></g><g><use xlink:href="#d2kNhsj2S1" opacity="1" fill="#6caa1c" fill-opacity="1"></use><g><use xlink:href="#d2kNhsj2S1" opacity="1" fill-opacity="0" stroke="#000000" stroke-width="1" stroke-opacity="0"></use></g></g><g><use xlink:href="#aXeN3ius3" opacity="1" fill="#6caa1c" fill-opacity="1"></use><g><use xlink:href="#aXeN3ius3" opacity="1" fill-opacity="0" stroke="#000000" stroke-width="1" stroke-opacity="0"></use></g></g><g><use xlink:href="#a65Lm3YRIS" opacity="1" fill="#6caa1c" fill-opacity="1"></use><g><use xlink:href="#a65Lm3YRIS" opacity="1" fill-opacity="0" stroke="#000000" stroke-width="1" stroke-opacity="0"></use></g></g><g><use xlink:href="#a2Fcot34i" opacity="1" fill="#6caa1c" fill-opacity="1"></use><g><use xlink:href="#a2Fcot34i" opacity="1" fill-opacity="0" stroke="#000000" stroke-width="1" stroke-opacity="0"></use></g></g></g></svg>