<?xml version="1.0" encoding="UTF-8" standalone="no"?>
<!DOCTYPE svg PUBLIC "-//W3C//DTD SVG 1.1//EN" "http://www.w3.org/Graphics/SVG/1.1/DTD/svg11.dtd">
<svg version="1.1" xmlns="http://www.w3.org/2000/svg" xmlns:xlink="http://www.w3.org/1999/xlink" preserveAspectRatio="xMidYMid meet" viewBox="-1 -1 47 16" width="43" height="12"><defs><path d="M43 0L43 12L0 12L0 0L43 0Z" id="ahnmPsrBI"></path><path d="M1 6L3 6L3 7L1 7L1 6Z" id="bvpSYEb8N"></path><path d="M1 11L3 11L3 12L1 12L1 11Z" id="j72RK4OxBn"></path><path d="M38 1L38 3L37 3L37 1L38 1Z" id="fAiFgpEqy"></path><path d="M33 1L33 3L32 3L32 1L33 1Z" id="a5bBpbwi9"></path><path d="M28 1L28 3L27 3L27 1L28 1Z" id="anUOCAjDY"></path><path d="M23 1L23 3L22 3L22 1L23 1Z" id="a3vW67wrB7"></path><path d="M17 1L17 3L16 3L16 1L17 1Z" id="a1Z7wIHolR"></path><path d="M12 1L12 3L11 3L11 1L12 1Z" id="a1c44kOx1q"></path><path d="M7 1L7 3L6 3L6 1L7 1Z" id="kjXnvImsa"></path><path d="M42 7L40 7L40 6L42 6L42 7Z" id="ac8xHeTYu"></path></defs><g><g><use xlink:href="#ahnmPsrBI" opacity="1" fill="#000000" fill-opacity="0"></use><g><use xlink:href="#ahnmPsrBI" opacity="1" fill-opacity="0" stroke="#ffffff" stroke-width="1" stroke-opacity="1"></use></g></g><g><use xlink:href="#bvpSYEb8N" opacity="1" fill="#ffffff" fill-opacity="1"></use><g><use xlink:href="#bvpSYEb8N" opacity="1" fill-opacity="0" stroke="#000000" stroke-width="1" stroke-opacity="0"></use></g></g><g><use xlink:href="#j72RK4OxBn" opacity="1" fill="#ffffff" fill-opacity="1"></use><g><use xlink:href="#j72RK4OxBn" opacity="1" fill-opacity="0" stroke="#000000" stroke-width="1" stroke-opacity="0"></use></g></g><g><use xlink:href="#fAiFgpEqy" opacity="1" fill="#ffffff" fill-opacity="1"></use><g><use xlink:href="#fAiFgpEqy" opacity="1" fill-opacity="0" stroke="#000000" stroke-width="1" stroke-opacity="0"></use></g></g><g><use xlink:href="#a5bBpbwi9" opacity="1" fill="#ffffff" fill-opacity="1"></use><g><use xlink:href="#a5bBpbwi9" opacity="1" fill-opacity="0" stroke="#000000" stroke-width="1" stroke-opacity="0"></use></g></g><g><use xlink:href="#anUOCAjDY" opacity="1" fill="#ffffff" fill-opacity="1"></use><g><use xlink:href="#anUOCAjDY" opacity="1" fill-opacity="0" stroke="#000000" stroke-width="1" stroke-opacity="0"></use></g></g><g><use xlink:href="#a3vW67wrB7" opacity="1" fill="#ffffff" fill-opacity="1"></use><g><use xlink:href="#a3vW67wrB7" opacity="1" fill-opacity="0" stroke="#000000" stroke-width="1" stroke-opacity="0"></use></g></g><g><use xlink:href="#a1Z7wIHolR" opacity="1" fill="#ffffff" fill-opacity="1"></use><g><use xlink:href="#a1Z7wIHolR" opacity="1" fill-opacity="0" stroke="#000000" stroke-width="1" stroke-opacity="0"></use></g></g><g><use xlink:href="#a1c44kOx1q" opacity="1" fill="#ffffff" fill-opacity="1"></use><g><use xlink:href="#a1c44kOx1q" opacity="1" fill-opacity="0" stroke="#000000" stroke-width="1" stroke-opacity="0"></use></g></g><g><use xlink:href="#kjXnvImsa" opacity="1" fill="#ffffff" fill-opacity="1"></use><g><use xlink:href="#kjXnvImsa" opacity="1" fill-opacity="0" stroke="#000000" stroke-width="1" stroke-opacity="0"></use></g></g><g><use xlink:href="#ac8xHeTYu" opacity="1" fill="#ffffff" fill-opacity="1"></use><g><use xlink:href="#ac8xHeTYu" opacity="1" fill-opacity="0" stroke="#000000" stroke-width="1" stroke-opacity="0"></use></g></g></g></svg>