<?xml version="1.0" encoding="UTF-8" standalone="no"?>
<!DOCTYPE svg PUBLIC "-//W3C//DTD SVG 1.1//EN" "http://www.w3.org/Graphics/SVG/1.1/DTD/svg11.dtd">
<svg version="1.1" xmlns="http://www.w3.org/2000/svg" xmlns:xlink="http://www.w3.org/1999/xlink" preserveAspectRatio="xMidYMid meet" viewBox="-1 -1 47 36.704831999999996" width="43" height="32.7"><defs><path d="M33.8 21.31C33.8 21.31 33.8 21.31 33.8 21.31C33.8 28.15 33.8 31.95 33.8 32.7C33.8 32.7 33.8 32.7 33.8 32.7C19.82 32.7 12.04 32.7 10.49 32.7C10.49 32.7 10.49 32.7 10.49 32.7C10.49 25.87 10.49 22.07 10.49 21.31C10.49 21.31 10.49 21.31 10.49 21.31C24.48 21.31 32.25 21.31 33.8 21.31Z" id="bGjIlL0aH"></path><path d="M37 1L37 3L36 3L36 1L37 1Z" id="a3P45KTMCf"></path><path d="M32 1L32 3L31 3L31 1L32 1Z" id="e1BBYwZQY"></path><path d="M27 1L27 3L26 3L26 1L27 1Z" id="b1ULiSvGN"></path><path d="M22 1L22 3L21 3L21 1L22 1Z" id="b6k8GLolzu"></path><path d="M16 1L16 3L15 3L15 1L16 1Z" id="akbBTolJr"></path><path d="M11 1L11 3L10 3L10 1L11 1Z" id="ad507UXYB"></path><path d="M6 1L6 3L5 3L5 1L6 1Z" id="g4K5LGCPH5"></path><path d="M41.64 6.99L39.64 6.99L39.64 5.99L41.64 5.99L41.64 6.99Z" id="e1XSu2QAar"></path><path d="M3 7L1 7L1 6L3 6L3 7Z" id="aeuSBNr0q"></path><path d="M31.5 12L12 12L12 12L0 12L0 0L43 0M43 0L42.91 12L31 12" id="a1GlUjakqH"></path></defs><g><g><use xlink:href="#bGjIlL0aH" opacity="1" fill="#000000" fill-opacity="0"></use><g><use xlink:href="#bGjIlL0aH" opacity="1" fill-opacity="0" stroke="#ffffff" stroke-width="NaN" stroke-opacity="1"></use></g></g><g><use xlink:href="#a3P45KTMCf" opacity="1" fill="#ffffff" fill-opacity="1"></use><g><use xlink:href="#a3P45KTMCf" opacity="1" fill-opacity="0" stroke="#000000" stroke-width="1" stroke-opacity="0"></use></g></g><g><use xlink:href="#e1BBYwZQY" opacity="1" fill="#ffffff" fill-opacity="1"></use><g><use xlink:href="#e1BBYwZQY" opacity="1" fill-opacity="0" stroke="#000000" stroke-width="1" stroke-opacity="0"></use></g></g><g><use xlink:href="#b1ULiSvGN" opacity="1" fill="#ffffff" fill-opacity="1"></use><g><use xlink:href="#b1ULiSvGN" opacity="1" fill-opacity="0" stroke="#000000" stroke-width="1" stroke-opacity="0"></use></g></g><g><use xlink:href="#b6k8GLolzu" opacity="1" fill="#ffffff" fill-opacity="1"></use><g><use xlink:href="#b6k8GLolzu" opacity="1" fill-opacity="0" stroke="#000000" stroke-width="1" stroke-opacity="0"></use></g></g><g><use xlink:href="#akbBTolJr" opacity="1" fill="#ffffff" fill-opacity="1"></use><g><use xlink:href="#akbBTolJr" opacity="1" fill-opacity="0" stroke="#000000" stroke-width="1" stroke-opacity="0"></use></g></g><g><use xlink:href="#ad507UXYB" opacity="1" fill="#ffffff" fill-opacity="1"></use><g><use xlink:href="#ad507UXYB" opacity="1" fill-opacity="0" stroke="#000000" stroke-width="1" stroke-opacity="0"></use></g></g><g><use xlink:href="#g4K5LGCPH5" opacity="1" fill="#ffffff" fill-opacity="1"></use><g><use xlink:href="#g4K5LGCPH5" opacity="1" fill-opacity="0" stroke="#000000" stroke-width="1" stroke-opacity="0"></use></g></g><g><use xlink:href="#e1XSu2QAar" opacity="1" fill="#ffffff" fill-opacity="1"></use><g><use xlink:href="#e1XSu2QAar" opacity="1" fill-opacity="0" stroke="#000000" stroke-width="1" stroke-opacity="0"></use></g></g><g><use xlink:href="#aeuSBNr0q" opacity="1" fill="#ffffff" fill-opacity="1"></use><g><use xlink:href="#aeuSBNr0q" opacity="1" fill-opacity="0" stroke="#000000" stroke-width="1" stroke-opacity="0"></use></g></g><g><use xlink:href="#a1GlUjakqH" opacity="1" fill="#000000" fill-opacity="0"></use><g><use xlink:href="#a1GlUjakqH" opacity="1" fill-opacity="0" stroke="#ffffff" stroke-width="1" stroke-opacity="1"></use></g></g></g></svg>