<?xml version="1.0" encoding="UTF-8" standalone="no"?>
<!DOCTYPE svg PUBLIC "-//W3C//DTD SVG 1.1//EN" "http://www.w3.org/Graphics/SVG/1.1/DTD/svg11.dtd">
<svg version="1.1" xmlns="http://www.w3.org/2000/svg" xmlns:xlink="http://www.w3.org/1999/xlink" preserveAspectRatio="xMidYMid meet" viewBox="-1 -1.3999999999999986 47 47" width="43" height="43"><defs><path d="M12 11.5L12 42.6L0 42.6L0 -0.4M0 0L43 0L43 12L12 12" id="b1JKBTE4jm"></path><path d="M1 6L3 6L3 7L1 7L1 6Z" id="f2EbQ5OM94"></path><path d="M1 11L3 11L3 12L1 12L1 11Z" id="a2p9KC74fo"></path><path d="M1 16L3 16L3 17L1 17L1 16Z" id="jfZL9K9d8"></path><path d="M1 21L3 21L3 22L1 22L1 21Z" id="cgz8Ky4qP"></path><path d="M1 27L3 27L3 28L1 28L1 27Z" id="b64IO06IT3"></path><path d="M1 32L3 32L3 33L1 33L1 32Z" id="j5TR3b2JOv"></path><path d="M1 37L3 37L3 38L1 38L1 37Z" id="cvEhhtazf"></path><path d="M38 1L38 3L37 3L37 1L38 1Z" id="a31F9xoU3B"></path><path d="M33 1L33 3L32 3L32 1L33 1Z" id="aci0iTrCt"></path><path d="M28 1L28 3L27 3L27 1L28 1Z" id="b1HKfTPr6J"></path><path d="M23 1L23 3L22 3L22 1L23 1Z" id="a1G5wVaVOF"></path><path d="M17 1L17 3L16 3L16 1L17 1Z" id="a27nlIdK5B"></path><path d="M12 1L12 3L11 3L11 1L12 1Z" id="a1qIMooQHs"></path><path d="M7 1L7 3L6 3L6 1L7 1Z" id="cDVH7mXI8"></path></defs><g><g><use xlink:href="#b1JKBTE4jm" opacity="1" fill="#000000" fill-opacity="0"></use><g><use xlink:href="#b1JKBTE4jm" opacity="1" fill-opacity="0" stroke="#fefefe" stroke-width="1" stroke-opacity="1"></use></g></g><g><use xlink:href="#f2EbQ5OM94" opacity="1" fill="#ffffff" fill-opacity="1"></use><g><use xlink:href="#f2EbQ5OM94" opacity="1" fill-opacity="0" stroke="#000000" stroke-width="1" stroke-opacity="0"></use></g></g><g><use xlink:href="#a2p9KC74fo" opacity="1" fill="#ffffff" fill-opacity="1"></use><g><use xlink:href="#a2p9KC74fo" opacity="1" fill-opacity="0" stroke="#000000" stroke-width="1" stroke-opacity="0"></use></g></g><g><use xlink:href="#jfZL9K9d8" opacity="1" fill="#ffffff" fill-opacity="1"></use><g><use xlink:href="#jfZL9K9d8" opacity="1" fill-opacity="0" stroke="#000000" stroke-width="1" stroke-opacity="0"></use></g></g><g><use xlink:href="#cgz8Ky4qP" opacity="1" fill="#ffffff" fill-opacity="1"></use><g><use xlink:href="#cgz8Ky4qP" opacity="1" fill-opacity="0" stroke="#000000" stroke-width="1" stroke-opacity="0"></use></g></g><g><use xlink:href="#b64IO06IT3" opacity="1" fill="#ffffff" fill-opacity="1"></use><g><use xlink:href="#b64IO06IT3" opacity="1" fill-opacity="0" stroke="#000000" stroke-width="1" stroke-opacity="0"></use></g></g><g><use xlink:href="#j5TR3b2JOv" opacity="1" fill="#ffffff" fill-opacity="1"></use><g><use xlink:href="#j5TR3b2JOv" opacity="1" fill-opacity="0" stroke="#000000" stroke-width="1" stroke-opacity="0"></use></g></g><g><use xlink:href="#cvEhhtazf" opacity="1" fill="#ffffff" fill-opacity="1"></use><g><use xlink:href="#cvEhhtazf" opacity="1" fill-opacity="0" stroke="#000000" stroke-width="1" stroke-opacity="0"></use></g></g><g><use xlink:href="#a31F9xoU3B" opacity="1" fill="#ffffff" fill-opacity="1"></use><g><use xlink:href="#a31F9xoU3B" opacity="1" fill-opacity="0" stroke="#000000" stroke-width="1" stroke-opacity="0"></use></g></g><g><use xlink:href="#aci0iTrCt" opacity="1" fill="#ffffff" fill-opacity="1"></use><g><use xlink:href="#aci0iTrCt" opacity="1" fill-opacity="0" stroke="#000000" stroke-width="1" stroke-opacity="0"></use></g></g><g><use xlink:href="#b1HKfTPr6J" opacity="1" fill="#ffffff" fill-opacity="1"></use><g><use xlink:href="#b1HKfTPr6J" opacity="1" fill-opacity="0" stroke="#000000" stroke-width="1" stroke-opacity="0"></use></g></g><g><use xlink:href="#a1G5wVaVOF" opacity="1" fill="#ffffff" fill-opacity="1"></use><g><use xlink:href="#a1G5wVaVOF" opacity="1" fill-opacity="0" stroke="#000000" stroke-width="1" stroke-opacity="0"></use></g></g><g><use xlink:href="#a27nlIdK5B" opacity="1" fill="#ffffff" fill-opacity="1"></use><g><use xlink:href="#a27nlIdK5B" opacity="1" fill-opacity="0" stroke="#000000" stroke-width="1" stroke-opacity="0"></use></g></g><g><use xlink:href="#a1qIMooQHs" opacity="1" fill="#ffffff" fill-opacity="1"></use><g><use xlink:href="#a1qIMooQHs" opacity="1" fill-opacity="0" stroke="#000000" stroke-width="1" stroke-opacity="0"></use></g></g><g><use xlink:href="#cDVH7mXI8" opacity="1" fill="#ffffff" fill-opacity="1"></use><g><use xlink:href="#cDVH7mXI8" opacity="1" fill-opacity="0" stroke="#000000" stroke-width="1" stroke-opacity="0"></use></g></g></g></svg>